<?xml version="1.0" encoding="UTF-8" standalone="no"?>
<!-- Created with Inkscape (http://www.inkscape.org/) -->

<svg
   width="210mm"
   height="297mm"
   viewBox="0 0 210 297"
   version="1.1"
   id="svg1"
   inkscape:version="1.3 (0e150ed6c4, 2023-07-21)"
   sodipodi:docname="drawing_1.svg"
   xmlns:inkscape="http://www.inkscape.org/namespaces/inkscape"
   xmlns:sodipodi="http://sodipodi.sourceforge.net/DTD/sodipodi-0.dtd"
   xmlns="http://www.w3.org/2000/svg"
   xmlns:svg="http://www.w3.org/2000/svg">
  <sodipodi:namedview
     id="namedview1"
     pagecolor="#ffffff"
     bordercolor="#000000"
     borderopacity="0.25"
     inkscape:showpageshadow="2"
     inkscape:pageopacity="0.0"
     inkscape:pagecheckerboard="0"
     inkscape:deskcolor="#d1d1d1"
     inkscape:document-units="mm"
     inkscape:zoom="0.79196829"
     inkscape:cx="397.11186"
     inkscape:cy="561.25985"
     inkscape:window-width="2181"
     inkscape:window-height="2104"
     inkscape:window-x="5542"
     inkscape:window-y="73"
     inkscape:window-maximized="0"
     inkscape:current-layer="layer1" />
  <defs
     id="defs1" />
  <g
     inkscape:label="Layer 1"
     inkscape:groupmode="layer"
     id="layer1">
    <path
       style="fill:none;stroke:#000000;stroke-width:2.64583"
       d="m 40.089989,135.63779 c 2.228884,0.31841 3.038118,0.71465 5.345332,-0.33408 6.499077,-2.95413 12.113874,-9.08675 16.704162,-14.36558 0.859755,-0.98872 3.227493,-4.18204 3.674914,-5.34533 0.417364,-1.08515 0.615299,-2.24447 1.002249,-3.34083 0.880359,-2.49435 2.188861,-4.71181 3.340833,-7.01575 0.530799,-1.0616 2.113116,-0.61926 3.006749,-1.00225 0.28951,-0.12408 0.386443,-0.52731 0.668168,-0.66817 0.803034,-0.40152 1.820916,-0.0502 2.672665,-0.33408 0.535181,-0.17839 4.137284,-2.1702 4.343082,-2.33858 2.27556,-1.861825 2.0045,-4.118501 2.0045,-6.681668 0,-0.370369 -0.160161,-1.016013 0,-1.336331 1.77456,-3.549123 7.984675,-3.713123 11.358829,-4.677166 2.429804,-0.69423 2.847565,-1.74706 5.679416,-2.0045 2.077282,-0.188843 6.105912,-0.621958 8.018002,0.334085 0.80303,0.401515 1.49792,1.021085 2.33858,1.336331 0.96132,0.360497 2.05738,0.277251 3.00675,0.668168 1.80129,0.741709 3.26888,2.135566 5.01125,3.006748 0.75856,0.379283 1.65269,0.503421 2.33858,1.00225 1.44723,1.809038 0.82182,1.373373 2.33858,2.338583 0.89089,0.556805 1.78178,1.11361 2.67267,1.670415 0.44544,0.111361 0.94261,0.09785 1.33633,0.334085 0.21352,0.128113 0.18468,0.468958 0.33408,0.668165 1.29526,1.727015 1.6949,4.021245 3.67492,5.011245 8.18507,4.09254 -0.46061,0.0519 4.67716,1.33634 0.38953,0.0974 0.66177,0.45536 1.00225,0.66816 2.55362,1.59601 5.32348,3.71648 8.35209,4.34308 9.49371,1.96422 4.40113,0.27391 13.69741,1.33634 1.69248,0.19342 3.33093,0.72219 5.01125,1.00225 1.66227,0.27704 3.35323,0.36671 5.01124,0.66816 1.60565,0.29194 5.47987,1.61399 7.01575,0.33409 0.7622,-0.63516 1.44154,-2.09125 1.67042,-3.00675 0.081,-0.32411 -0.0918,-0.68102 0,-1.00225 0.13681,-0.47886 0.51068,-0.86387 0.66816,-1.33633 0.60454,-1.81362 0.0302,-3.52184 0.33409,-5.34534 0.13328,-0.79969 0.4923,-1.54716 0.66816,-2.33858 0.25936,-1.16708 -0.1968,-2.494073 0,-3.674914 0.16468,-0.988052 0.21256,-2.429611 0.66817,-3.340833 0.49963,-0.999262 1.33634,-2.214848 1.33634,-3.340833"
       id="path1" />
  </g>
</svg>
