<?xml version="1.0" encoding="UTF-8" standalone="no"?>
<svg
   id="Vrstva_1"
   data-name="Vrstva 1"
   viewBox="0 0 1324.25 412.98"
   version="1.1"
   sodipodi:docname="geopandas_logo.svg"
   inkscape:version="1.3 (0e150ed6c4, 2023-07-21)"
   xmlns:inkscape="http://www.inkscape.org/namespaces/inkscape"
   xmlns:sodipodi="http://sodipodi.sourceforge.net/DTD/sodipodi-0.dtd"
   xmlns="http://www.w3.org/2000/svg"
   xmlns:svg="http://www.w3.org/2000/svg">
  <sodipodi:namedview
     id="namedview12"
     pagecolor="#ffffff"
     bordercolor="#000000"
     borderopacity="0.25"
     inkscape:showpageshadow="2"
     inkscape:pageopacity="0.0"
     inkscape:pagecheckerboard="0"
     inkscape:deskcolor="#d1d1d1"
     inkscape:zoom="1.8546347"
     inkscape:cx="400.61797"
     inkscape:cy="253.68877"
     inkscape:window-width="1920"
     inkscape:window-height="1057"
     inkscape:window-x="-8"
     inkscape:window-y="-8"
     inkscape:window-maximized="1"
     inkscape:current-layer="Vrstva_1" />
  <defs
     id="defs1">
    <style
       id="style1">.cls-1{fill:#fec905;}.cls-2{fill:#e21c84;}.cls-3{fill:#0f9c5a;}</style>
  </defs>
  <rect
     class="cls-1"
     x="211.63"
     y="198.82"
     width="24.09"
     height="23.6"
     id="rect1" />
  <rect
     class="cls-2"
     x="249.53"
     y="240.01"
     width="24.09"
     height="23.6"
     id="rect2" />
  <path
     class="cls-3"
     d="M471.5,267c-31.14,0-57.42-22.14-57.42-57.06s27.36-56.34,58.86-56.34c14.22,0,29.34,4.14,38.34,11v20c-9-7.56-20.16-13.32-36.18-13.32-22.5,0-38.16,14.76-38.16,39.6,0,24.3,15.3,39.6,36.9,39.6,8.28,0,15.3-1.62,20.88-4.5V224.9H475.64V208.7h40.14v47.7C509.66,258.92,492.74,267,471.5,267Z"
     id="path2" />
  <path
     class="cls-3"
     d="M601.1,225.62H549.26c-.54,11.88,5.58,25.38,26.46,25.38,8.82,0,19.26-4,25.2-9.18v15.12c-7.38,5.76-18.72,9.18-31.68,9.18-23.94,0-40.68-17.46-40.68-41.58,0-24.84,19.08-40.5,39.24-40.5,19.8,0,34.56,12.42,34.56,30.78A49.41,49.41,0,0,1,601.1,225.62Zm-32.76-28.26c-8.82,0-16.38,5-18.18,17.1h33.3C585.26,205.1,579.14,197.36,568.34,197.36Z"
     id="path3" />
  <path
     class="cls-3"
     d="M654.37,266.84c-25.19,0-43.73-18.18-43.73-41.76,0-23.4,18.54-41.76,43.73-41.76,25,0,43.56,18.36,43.56,41.76C697.93,248.66,679.39,266.84,654.37,266.84Zm0-68.22c-14,0-23.21,10.8-23.21,26.46,0,15.84,9.36,26.46,23.21,26.46s23-10.62,23-26.46C677.41,209.42,668.23,198.62,654.37,198.62Z"
     id="path4" />
  <path
     class="cls-3"
     d="M751,224.72H732V264H710V156h41c25.92,0,37.44,15.84,37.44,34.38C788.47,209.06,777,224.72,751,224.72Zm-3.6-53.1H732v37.44h15.48c14.22,0,19.26-8.46,19.26-18.72C766.69,180.26,761.65,171.62,747.43,171.62Z"
     id="path5" />
  <path
     class="cls-3"
     d="M858,264l-.72-12.42c-6.48,9.54-18,14.58-29,14.58-21,0-36.53-17.64-36.53-41s15.48-41,36.53-41c11,0,22.5,5,29,14.58L858,186.2h18.9V264Zm-23.22-64.44c-12.24,0-22.14,9.54-22.14,25.56s9.9,25.56,22.14,25.56,22.14-9.54,22.14-25.56S847,199.52,834.73,199.52Z"
     id="path6" />
  <path
     class="cls-3"
     d="M949.57,264v-43c0-15.12-5.22-20.16-14.76-20.16-9.9,0-20.7,9-20.7,19.8V264H893.24V186.2h19.07l.9,14.4C918.43,190.7,930.13,184,942,184c20.7,0,28.44,14.4,28.44,33.66V264Z"
     id="path7" />
  <path
     class="cls-3"
     d="M1048.39,264l-.72-12.42c-6.48,9.54-18,14.58-29,14.58-21.06,0-36.54-17.64-36.54-41s15.48-41,36.54-41c10.44,0,21.06,4.32,27.72,12.78V156h20.88V264Zm-23.22-64.44c-12.24,0-22.14,9.54-22.14,25.56s9.9,25.56,22.14,25.56,22.14-9.54,22.14-25.56S1037.41,199.52,1025.17,199.52Z"
     id="path8" />
  <path
     class="cls-3"
     d="M1145.41,264l-.72-12.42c-6.48,9.54-18,14.58-29,14.58-21.06,0-36.54-17.64-36.54-41s15.48-41,36.54-41c11,0,22.5,5,29,14.58l.72-12.42h18.9V264Zm-23.22-64.44c-12.24,0-22.14,9.54-22.14,25.56s9.9,25.56,22.14,25.56,22.14-9.54,22.14-25.56S1134.43,199.52,1122.19,199.52Z"
     id="path9" />
  <path
     class="cls-3"
     d="M1206.43,266.48a61.17,61.17,0,0,1-31.14-8.82l3.42-14.4c6.3,3.78,15.84,8.64,27.36,8.64,8.28,0,14-2.52,14-9,0-5.58-5.94-7.56-16.56-10.08-19.08-4.14-25.92-14.22-25.92-25.2,0-12.24,9.54-23.76,30.6-23.76,12.78,0,23.94,5.58,26.46,7l-3.42,13.68a45.3,45.3,0,0,0-22.5-6.48c-8.46,0-12.6,2.88-12.6,7.56,0,5.22,5.4,7.56,13.68,9.54,20.52,4.32,28.8,13.86,28.8,24.3C1238.65,256.22,1226.41,266.48,1206.43,266.48Z"
     id="path10" />
  <rect
     class="cls-3"
     x="211.63"
     y="134.2"
     width="24.09"
     height="50.02"
     id="rect10" />
  <rect
     class="cls-3"
     x="211.63"
     y="236.95"
     width="24.09"
     height="50.02"
     id="rect11" />
  <rect
     class="cls-3"
     x="249.53"
     y="175.39"
     width="24.09"
     height="50.02"
     id="rect12" />
  <path
     class="cls-3"
     d="m 207.51,69.19 c -76.34,0 -138.45,62.11 -138.45,138.45 0,76.34 62.11,138.46 138.45,138.46 C 283.85,346.1 346,284 346,207.64 346,131.28 283.85,69.19 207.51,69.19 Z M 321,207.64 c 0.009,15.61373 -3.22249,31.05941 -9.49,45.36 v -90.68 c 6.25987,14.28896 9.49113,29.71999 9.49,45.32 z m -47.34,92.05 c -0.14206,-4.40176 0,-21.47 0,-21.47 H 249.53 V 313 c -13.35797,5.34136 -27.61371,8.0805 -42,8.07 -3.53,0 -7,-0.17 -10.48,-0.49 V 175.33 H 172.94 V 315.7 C 102.99788,293.37566 72.363931,211.50124 110.47307,148.74833 148.5822,85.995416 235.35822,75.422747 287.42,127.19 c 0,0 -0.0702,145.91363 0,160.85 -3.16611,3.32018 -10.01261,9.11548 -13.76,11.65 z"
     id="path12"
     sodipodi:nodetypes="ssssscccccccccccccsccc" />
</svg>
