<?xml version="1.0" encoding="UTF-8" standalone="no"?>
<!-- Created with Inkscape (http://www.inkscape.org/) -->

<svg
   version="1.1"
   id="svg1"
   width="280"
   height="280"
   viewBox="0 0 280 280"
   sodipodi:docname="img_5.svg"
   inkscape:version="1.3 (0e150ed6c4, 2023-07-21)"
   xmlns:inkscape="http://www.inkscape.org/namespaces/inkscape"
   xmlns:sodipodi="http://sodipodi.sourceforge.net/DTD/sodipodi-0.dtd"
   xmlns="http://www.w3.org/2000/svg"
   xmlns:svg="http://www.w3.org/2000/svg">
  <defs
     id="defs1" />
  <sodipodi:namedview
     id="namedview1"
     pagecolor="#ffffff"
     bordercolor="#000000"
     borderopacity="0.25"
     inkscape:showpageshadow="2"
     inkscape:pageopacity="0.0"
     inkscape:pagecheckerboard="0"
     inkscape:deskcolor="#d1d1d1"
     showgrid="false"
     inkscape:zoom="3.075"
     inkscape:cx="140"
     inkscape:cy="140"
     inkscape:window-width="1920"
     inkscape:window-height="1057"
     inkscape:window-x="-8"
     inkscape:window-y="-8"
     inkscape:window-maximized="1"
     inkscape:current-layer="g1" />
  <g
     inkscape:groupmode="layer"
     inkscape:label="Image"
     id="g1">
    <path
       style="fill:#000000"
       d="m 49.25,248.02693 c -5.252011,-2.38398 -5.282548,-3.54106 -0.261107,-9.89366 l 3.988893,-5.04633 4.261107,-1.16354 c 9.722817,-2.65491 11.235603,-3.33123 14.295475,-6.3911 l 3.203352,-3.20335 6.38114,-1.26193 c 11.622806,-2.2985 16.801484,-4.04966 17.867715,-6.04194 0.568974,-1.06313 4.067255,-3.37731 7.773965,-5.1426 3.7067,-1.76529 8.92746,-4.71102 11.60167,-6.54605 C 121.03643,201.50139 123.79843,200 124.5,200 c 0.70157,0 3.68143,-1.65494 6.62193,-3.67764 2.94049,-2.0227 8.72848,-4.97539 12.86221,-6.56152 4.13372,-1.58613 8.41586,-3.46712 9.51586,-4.17997 1.1,-0.71285 4.60291,-2.05221 7.78425,-2.97637 l 5.78425,-1.68028 1.58916,-3.33251 1.58916,-3.33252 -1.74038,-5.23979 -1.74038,-5.23979 -7.15241,-3.25946 c -3.93382,-1.7927 -7.81208,-4.05432 -8.61835,-5.02581 -0.80627,-0.97149 -3.27255,-2.88695 -5.48062,-4.25657 C 139.97334,147.8006 132.26513,140.20356 130.05393,136 c -1.01261,-1.925 -2.84736,-4.4 -4.07723,-5.5 -1.22986,-1.1 -3.35703,-3.8 -4.72704,-6 -1.37,-2.2 -3.50583,-5.125 -4.74628,-6.5 -1.46885,-1.62818 -2.4941,-4.41801 -2.93995,-8 l -0.68459,-5.5 -3.60564,-5.25 c -4.11674,-5.994198 -3.46322,-5.745325 -9.597843,-3.65505 l -4.68092,1.59495 -5.247219,-2.946854 C 83.212218,90.57297 80.47502,86.658613 79.6658,79.826018 l -0.629682,-5.316681 2.317084,-2.317084 2.317083,-2.317084 8.914858,-0.843677 C 97.87934,68.530465 104.28978,67.134332 108.36906,65.593908 112.14704,64.167259 116.65001,63 118.37566,63 c 1.72565,0 4.70957,-0.501065 6.63094,-1.113477 1.92137,-0.612412 10.0184,-1.417262 17.9934,-1.788554 l 14.5,-0.675078 4,-2.081345 c 2.2,-1.144739 8.5,-2.794966 14,-3.667171 l 10,-1.585827 4.59146,5.162283 4.59145,5.162283 5.40855,-5.099455 c 6.10802,-5.758965 10.25485,-7.299696 19.66944,-7.308082 L 226.0218,50 l 4.4891,2.110127 c 2.469,1.16057 4.4891,2.23119 4.4891,2.379157 0,11.724256 -23.0492,22.004901 -37.23926,16.609848 -8.20555,-3.119743 -14.80614,1.827628 -17.6566,13.234218 -1.06788,4.273298 -2.67675,8.89162 -3.57527,10.262938 l -1.63368,2.493307 -2.93598,-2.470462 C 167.78624,91.107811 158.70306,88.53825 151.0222,88.69622 l -6.47779,0.133227 -3.02221,3.47416 c -1.66221,1.910788 -4.27813,5.523326 -5.81315,8.027863 l -2.79095,4.5537 2.93138,5.30742 c 1.61227,2.91907 3.67428,7.61699 4.58226,10.4398 2.17085,6.74898 3.5868,7.87171 15.73942,12.48008 l 10.27481,3.89628 5.02701,4.82696 c 2.76486,2.65483 7.05202,6.33362 9.52702,8.17511 2.475,1.84148 5.175,4.07526 6,4.96396 0.825,0.8887 3.56231,3.25145 6.08292,5.25056 l 4.58291,3.63473 2.09637,5.69087 2.09636,5.69087 -0.95943,2.52349 c -0.52768,1.38792 -1.43495,5.94601 -2.01616,10.12909 -1.26237,9.08568 -1.2475,9.06475 -8.58682,12.0828 -3.18788,1.31091 -7.37251,3.63832 -9.29917,5.17203 -1.92667,1.53371 -6.17784,3.70883 -9.44705,4.8336 -3.26921,1.12477 -8.21785,3.57068 -10.99697,5.43534 -2.77913,1.86467 -7.30296,4.10727 -10.05296,4.98357 -2.75,0.8763 -7.21671,3.16939 -9.92602,5.09577 -2.70931,1.92637 -5.40931,3.50723 -6,3.51301 -0.59069,0.006 -3.76094,2.02765 -7.04501,4.49305 -3.28407,2.46539 -8.23407,5.21089 -11,6.1011 -2.76593,0.89021 -6.60397,2.53014 -8.52897,3.64429 -1.925,1.11415 -6.2,2.38888 -9.5,2.83273 -3.3,0.44385 -8.925,1.49767 -12.5,2.34182 -4.100217,0.96817 -11.299566,1.53441 -19.5,1.5337 l -13,-0.001 z"
       id="path1" />
  </g>
</svg>
